<?xml version="1.0" encoding="utf-8"?>
<!-- Generator: Adobe Illustrator 15.0.2, SVG Export Plug-In . SVG Version: 6.00 Build 0)  -->
<!DOCTYPE svg PUBLIC "-//W3C//DTD SVG 1.1//EN" "http://www.w3.org/Graphics/SVG/1.1/DTD/svg11.dtd">
<svg version="1.1" xmlns="http://www.w3.org/2000/svg" xmlns:xlink="http://www.w3.org/1999/xlink" x="0px" y="0px"
	 width="595.28px" height="841.89px" viewBox="0 0 595.28 841.89" enable-background="new 0 0 595.28 841.89" xml:space="preserve">
<g id="Layer_1">
	<g>
		<ellipse fill="#ED1C24" cx="297.528" cy="425.86" rx="33.861" ry="34.771"/>
		<path fill="#ED2427" d="M331.417,459.214c-9.136,8.921-20.426,13.381-33.871,13.381c-13.444,0-24.736-4.46-33.871-13.381
			c-9.136-8.92-13.703-20.038-13.703-33.354c0-13.315,4.567-24.433,13.703-33.354c9.135-8.92,20.427-13.38,33.871-13.38
			c13.445,0,24.735,4.46,33.871,13.38c9.135,8.92,13.704,20.039,13.704,33.354C345.121,439.176,340.552,450.294,331.417,459.214z
			 M320.234,402.654c-6.163-6.377-13.726-9.566-22.688-9.566c-8.965,0-16.527,3.189-22.688,9.566
			c-6.163,6.379-9.243,14.114-9.243,23.205c0,9.095,3.08,16.829,9.243,23.206c6.161,6.379,13.724,9.566,22.688,9.566
			c8.963,0,16.525-3.188,22.688-9.566c6.161-6.377,9.244-14.111,9.244-23.206C329.479,416.768,326.396,409.034,320.234,402.654z"/>
		<path d="M297.546,459.921c-5.738-0.17-11.161-1.314-16.04-4.689c-4.877-3.377-9.286-10.882-10.225-12.758
			c-0.938-1.876-4.313-11.229-7.41-14.513c0,0,18.338,6.398,33.675,6.398s33.675-6.443,33.675-6.443
			c-3.097,3.282-6.473,12.682-7.411,14.558c-0.938,1.876-5.347,9.381-10.224,12.758
			C308.707,458.606,303.284,460.091,297.546,459.921z"/>
		<g>
			<ellipse fill="#FFFFFF" cx="281.771" cy="386.621" rx="17.887" ry="17.828"/>
			<circle cx="284.852" cy="388.035" r="7.146"/>
		</g>
		<g>
			<ellipse fill="#FFFFFF" cx="313.214" cy="386.62" rx="17.848" ry="17.79"/>
			<circle cx="310.14" cy="388.032" r="7.131"/>
		</g>
		<ellipse fill="#FBB040" cx="297.546" cy="411.476" rx="14.696" ry="17.256"/>
	</g>
</g>
<g id="Layer_2">
	<g>
		<path d="M175.958,271.062v22.254h-11.511v-56.939h11.511v20.259c3.479-3.53,7.379-5.295,11.703-5.295
			c4.322,0,7.967,1.534,10.935,4.604c2.967,3.069,4.451,7.163,4.451,12.277v25.094h-11.511v-22.562c0-6.343-2.329-9.515-6.983-9.515
			c-2.302,0-4.311,0.832-6.023,2.493C176.814,265.396,175.958,267.838,175.958,271.062z"/>
		<path d="M249.242,287.33c-4.656,4.4-10.117,6.599-16.384,6.599c-6.268,0-11.447-1.93-15.539-5.793
			c-4.094-3.862-6.139-9.042-6.139-15.54c0-6.496,2.083-11.664,6.254-15.501c4.169-3.837,9.093-5.755,14.771-5.755
			s10.5,1.715,14.465,5.142c3.965,3.428,5.947,8.134,5.947,14.119v6.14h-30.081c0.357,2.251,1.535,4.093,3.53,5.524
			c1.995,1.434,4.246,2.149,6.753,2.149c4.041,0,7.366-1.355,9.976-4.067L249.242,287.33z M238.191,262.851
			c-1.586-1.33-3.518-1.995-5.793-1.995c-2.277,0-4.362,0.69-6.255,2.071c-1.893,1.382-2.992,3.25-3.299,5.603h18.109
			C240.698,266.073,239.777,264.182,238.191,262.851z"/>
		<path d="M272.417,293.315h-11.511v-56.939h11.511V293.315z"/>
		<path d="M321.221,271.062v22.254h-11.587v-22.562c0-3.272-0.499-5.678-1.496-7.213c-0.998-1.535-2.609-2.302-4.835-2.302
			s-4.195,0.832-5.909,2.493c-1.714,1.663-2.57,4.105-2.57,7.329v22.254h-11.511V252.03h11.511v4.681
			c3.172-3.58,6.804-5.371,10.896-5.371c2.609,0,4.975,0.768,7.099,2.302c2.122,1.535,3.722,3.403,4.796,5.603
			c1.585-2.507,3.722-4.451,6.407-5.832c2.687-1.382,5.384-2.072,8.097-2.072c4.859,0,8.772,1.446,11.74,4.336
			c2.967,2.891,4.451,7.072,4.451,12.546v25.094h-11.588v-22.562c0-6.343-2.328-9.515-6.982-9.515c-2.303,0-4.298,0.832-5.986,2.493
			C322.065,265.396,321.221,267.838,321.221,271.062z"/>
		<path d="M400.03,272.673c0,5.985-2.072,11.025-6.216,15.117c-4.144,4.094-9.351,6.139-15.616,6.139
			c-6.268,0-11.473-2.045-15.616-6.139c-4.144-4.092-6.216-9.132-6.216-15.117s2.072-11.037,6.216-15.155s9.349-6.178,15.616-6.178
			c6.266,0,11.473,2.06,15.616,6.178S400.03,266.688,400.03,272.673z M367.954,272.673c0,3.376,0.959,6.127,2.877,8.249
			c1.919,2.124,4.374,3.185,7.367,3.185s5.448-1.061,7.367-3.185c1.918-2.122,2.877-4.873,2.877-8.249
			c0-3.377-0.959-6.139-2.877-8.288c-1.919-2.148-4.374-3.223-7.367-3.223s-5.448,1.074-7.367,3.223
			C368.913,266.534,367.954,269.296,367.954,272.673z"/>
	</g>
</g>
</svg>
